<mxfile host="app.diagrams.net" modified="2023-08-09T11:03:17.632Z" agent="Mozilla/5.0 (Macintosh; Intel Mac OS X 10_15_7) AppleWebKit/537.36 (KHTML, like Gecko) Chrome/115.0.0.0 Safari/537.36" etag="lf3ZwOS5WkwjN9TSxune" version="21.6.6" type="github">
  <diagram name="第 1 页" id="9wA1bz4lTr5g_IzCsRkE">
    <mxGraphModel dx="954" dy="506" grid="1" gridSize="10" guides="1" tooltips="1" connect="1" arrows="1" fold="1" page="1" pageScale="1" pageWidth="827" pageHeight="1169" math="0" shadow="0">
      <root>
        <mxCell id="0" />
        <mxCell id="1" parent="0" />
        <mxCell id="Ut7JX2Wlys_-4nbz7HxA-4" style="rounded=0;orthogonalLoop=1;jettySize=auto;html=1;entryX=0;entryY=0.5;entryDx=0;entryDy=0;" edge="1" parent="1" source="Ut7JX2Wlys_-4nbz7HxA-1" target="Ut7JX2Wlys_-4nbz7HxA-2">
          <mxGeometry relative="1" as="geometry" />
        </mxCell>
        <mxCell id="Ut7JX2Wlys_-4nbz7HxA-5" style="rounded=0;orthogonalLoop=1;jettySize=auto;html=1;entryX=0;entryY=0.5;entryDx=0;entryDy=0;" edge="1" parent="1" source="Ut7JX2Wlys_-4nbz7HxA-1" target="Ut7JX2Wlys_-4nbz7HxA-3">
          <mxGeometry relative="1" as="geometry" />
        </mxCell>
        <mxCell id="Ut7JX2Wlys_-4nbz7HxA-1" value="&lt;font style=&quot;font-size: 16px;&quot;&gt;被测服务&lt;/font&gt;" style="rounded=0;whiteSpace=wrap;html=1;" vertex="1" parent="1">
          <mxGeometry x="200" y="210" width="120" height="60" as="geometry" />
        </mxCell>
        <mxCell id="Ut7JX2Wlys_-4nbz7HxA-2" value="&lt;font style=&quot;font-size: 16px;&quot;&gt;依赖服务&lt;/font&gt;" style="rounded=0;whiteSpace=wrap;html=1;" vertex="1" parent="1">
          <mxGeometry x="490" y="150" width="120" height="60" as="geometry" />
        </mxCell>
        <mxCell id="Ut7JX2Wlys_-4nbz7HxA-3" value="&lt;font style=&quot;font-size: 16px;&quot;&gt;mock 桩&lt;/font&gt;" style="rounded=0;whiteSpace=wrap;html=1;" vertex="1" parent="1">
          <mxGeometry x="490" y="280" width="120" height="60" as="geometry" />
        </mxCell>
        <mxCell id="Ut7JX2Wlys_-4nbz7HxA-6" value="" style="verticalLabelPosition=bottom;verticalAlign=top;html=1;shape=mxgraph.basic.x" vertex="1" parent="1">
          <mxGeometry x="370" y="190" width="20" height="30" as="geometry" />
        </mxCell>
        <mxCell id="Ut7JX2Wlys_-4nbz7HxA-7" value="" style="verticalLabelPosition=bottom;verticalAlign=top;html=1;shape=mxgraph.basic.tick" vertex="1" parent="1">
          <mxGeometry x="370" y="250" width="35" height="50" as="geometry" />
        </mxCell>
      </root>
    </mxGraphModel>
  </diagram>
</mxfile>
